#!OML:ASF G:\JayActor3\Patient Classification 1\Patient 1\Session 5\male.ASF
:FULLY-SPECIFIED
:DEGREES
1249
root 69.6431 15.9918 -5.61519 -1470.09 -93.086 1477.34
lowerback 11.8976 -0.980964 4.60407
upperback 4.63422 -0.997112 -0.807104
thorax -1.89695 -0.534235 -3.30114
lowerneck -3.19316 0.660229 3.52092
upperneck -0.395393 0.743078 -0.54157
head 0.422052 0.359377 -0.737498
rclavicle -1.39149e-015 -3.77691e-015
rhumerus -29.1209 1.42871 -90.3906
rradius 31.6971
rwrist 1.13821
rhand -21.1036 -8.42232
rfingers 7.12502
rthumb 5.27436 -38.3367
lclavicle -1.39149e-015 -3.77691e-015
lhumerus -22.9116 -4.93276 84.4903
lradius 28.9793
lwrist 19.4213
lhand -20.4702 11.618
lfingers 7.12502
lthumb 5.88584 41.5163
rfemur -10.3307 1.75972 26.9597
rtibia 28.8854
rfoot -41.0788 -4.60786
rtoes 43.7471
lfemur -21.3894 9.7738 -21.6725
ltibia 15.3981
lfoot -8.54203 -8.81217
ltoes -12.2521
1250
root 69.6866 15.9901 -5.62428 -1471.33 -93.1259 1478.34
lowerback 11.6126 -0.979383 4.63007
upperback 4.68734 -1.00542 -0.738715
thorax -1.68649 -0.532714 -3.24656
lowerneck -3.49451 0.652662 3.54941
upperneck 0.191602 0.71991 -0.595292
head 0.654074 0.354595 -0.760311
rclavicle 2.88238e-015 7.95139e-015
rhumerus -28.9019 1.69417 -90.3643
rradius 31.6399
rwrist 1.19079
rhand -20.9883 -8.53973
rfingers 7.12502
rthumb 5.38568 -38.4513
lclavicle 2.88238e-015 7.95139e-015
lhumerus -22.5612 -5.09068 84.6
lradius 29.0019
lwrist 19.461
lhand -20.5884 11.5756
lfingers 7.12502
lthumb 5.77177 41.477
rfemur -10.2082 1.70285 27.0615
rtibia 28.8731
rfoot -40.879 -4.72162
rtoes 43.4829
lfemur -21.1865 9.53253 -21.4925
ltibia 15.2507
lfoot -8.19647 -8.51926
ltoes -11.742
1251
root 69.7281 15.9882 -5.6347 -1473.18 -93.1412 1479.98
lowerback 11.3037 -0.981219 4.66095
upperback 4.72408 -1.01776 -0.664316
thorax -1.48034 -0.533136 -3.18834
lowerneck -3.79645 0.634427 3.57174
upperneck 0.805513 0.682196 -0.627517
head 0.896289 0.342725 -0.776444
rclavicle -8.05078e-015 1.80894e-014
rhumerus -28.7089 1.89719 -90.3233
rradius 31.5901
rwrist 1.26117
rhand -20.8863 -8.6656
rfingers 7.12502
rthumb 5.48409 -38.5746
lclavicle -8.05078e-015 1.80894e-014
lhumerus -22.2186 -5.30124 84.7221
lradius 29.0134
lwrist 19.5197
lhand -20.6367 11.5329
lfingers 7.12502
lthumb 5.72509 41.4356
rfemur -10.0914 1.6402 27.1891
rtibia 28.843
rfoot -40.7199 -4.85541
rtoes 43.2287
lfemur -21.0272 9.34198 -21.3134
ltibia 15.1281
lfoot -7.86683 -8.32253
ltoes -11.0555
1252
root 69.7677 15.9871 -5.64573 -1475.38 -93.1364 1481.98
lowerback 10.9859 -0.988595 4.69379
upperback 4.74242 -1.03676 -0.589901
thorax -1.28912 -0.537094 -3.13066
lowerneck -4.1166 0.611964 3.58609
upperneck 1.44661 0.637663 -0.64455
head 1.15242 0.327622 -0.787381
rclavicle -7.55382e-015 1.37161e-014
rhumerus -28.5416 2.05764 -90.2768
rradius 31.5475
rwrist 1.32636
rhand -20.8231 -8.78884
rfingers 7.12502
rthumb 5.54512 -38.6963
lclavicle -7.55382e-015 1.37161e-014
lhumerus -21.8732 -5.54349 84.8541
lradius 29.0091
lwrist 19.5851
lhand -20.635 11.5347
lfingers 7.12502
lthumb 5.72672 41.4373
rfemur -9.98069 1.55527 27.3187
rtibia 28.8022
rfoot -40.5627 -4.98705
rtoes 42.9595
lfemur -20.9176 9.17961 -21.1403
ltibia 15.0269
lfoot -7.50346 -8.20124
ltoes -10.3496
1253
root 69.806 15.9852 -5.65772 -1478.14 -93.1152 1484.55
lowerback 10.6729 -1.00394 4.73142
upperback 4.75251 -1.06547 -0.510531
thorax -1.10973 -0.546163 -3.0696
lowerneck -4.44645 0.587482 3.58324
upperneck 2.10216 0.589858 -0.643401
head 1.41739 0.310974 -0.790399
rclavicle -2.08724e-015 -1.33186e-014
rhumerus -28.3852 2.17609 -90.2235
rradius 31.4928
rwrist 1.37641
rhand -20.8076 -8.88362
rfingers 7.12502
rthumb 5.56015 -38.7907
lclavicle -2.08724e-015 -1.33186e-014
lhumerus -21.5253 -5.80438 84.9951
lradius 28.9957
lwrist 19.6551
lhand -20.5746 11.5315
lfingers 7.12502
lthumb 5.78506 41.4325
rfemur -9.86002 1.43352 27.4585
rtibia 28.7594
rfoot -40.398 -5.10369
rtoes 42.6685
lfemur -20.8103 9.05696 -20.9666
ltibia 14.9387
lfoot -7.17324 -8.14946
ltoes -9.58977
1254
root 69.843 15.9822 -5.67049 -1481.28 -93.0916 1487.49
lowerback 10.386 -1.02332 4.77539
upperback 4.74845 -1.09745 -0.433944
thorax -0.959513 -0.557523 -3.01459
lowerneck -4.76929 0.558065 3.57981
upperneck 2.76465 0.534737 -0.632864
head 1.68622 0.290725 -0.791051
rclavicle -7.05686e-015 1.15295e-014
rhumerus -28.2549 2.24752 -90.1724
rradius 31.4239
rwrist 1.40661
rhand -20.8208 -8.89936
rfingers 7.12502
rthumb 5.54735 -38.8067
lclavicle -7.05686e-015 1.15295e-014
lhumerus -21.2004 -6.0969 85.138
lradius 28.9895
lwrist 19.7354
lhand -20.4768 11.5247
lfingers 7.12502
lthumb 5.87945 41.4231
rfemur -9.72169 1.2981 27.5997
rtibia 28.7201
rfoot -40.2171 -5.19851
rtoes 42.3469
lfemur -20.6874 8.96755 -20.7893
ltibia 14.8628
lfoot -6.89545 -8.1493
ltoes -8.75379
1255
root 69.879 15.9784 -5.68314 -1484.42 -93.0709 1490.41
lowerback 10.1224 -1.042 4.81501
upperback 4.74276 -1.12843 -0.362154
thorax -0.823462 -0.568844 -2.96228
lowerneck -5.10077 0.529876 3.57135
upperneck 3.42022 0.480222 -0.616285
head 1.95751 0.270612 -0.789321
rclavicle -1.2424e-014 -2.5842e-015
rhumerus -28.1274 2.28259 -90.121
rradius 31.343
rwrist 1.40786
rhand -20.8563 -8.86193
rfingers 7.12502
rthumb 5.51308 -38.7702
lclavicle -1.2424e-014 -2.5842e-015
lhumerus -20.8806 -6.40357 85.2828
lradius 28.9884
lwrist 19.8161
lhand -20.3559 11.5458
lfingers 7.12502
lthumb 5.99623 41.441
rfemur -9.56452 1.15228 27.7245
rtibia 28.6872
rfoot -40.0087 -5.26484
rtoes 41.9923
lfemur -20.5458 8.90334 -20.6227
ltibia 14.8016
lfoot -6.65154 -8.17814
ltoes -8.1925
1256
root 69.9135 15.9742 -5.69549 -1487.67 -93.0506 1493.45
lowerback 9.88365 -1.06484 4.85573
upperback 4.72731 -1.16355 -0.295636
thorax -0.711455 -0.582823 -2.9155
lowerneck -5.43394 0.500267 3.5663
upperneck 4.07047 0.42267 -0.599042
head 2.2306 0.248867 -0.788427
rclavicle -5.01931e-015 5.36719e-015
rhumerus -28.0119 2.28754 -90.0722
rradius 31.2505
rwrist 1.39026
rhand -20.8976 -8.81527
rfingers 7.12502
rthumb 5.47318 -38.7246
lclavicle -5.01931e-015 5.36719e-015
lhumerus -20.582 -6.71561 85.4232
lradius 28.9943
lwrist 19.8997
lhand -20.2183 11.5773
lfingers 7.12502
lthumb 6.12903 41.4686
rfemur -9.39585 1.00408 27.8373
rtibia 28.6553
rfoot -39.7834 -5.31333
rtoes 41.6157
lfemur -20.395 8.84861 -20.4627
ltibia 14.7499
lfoot -6.44279 -8.23195
ltoes -7.78976
1257
root 69.9465 15.9703 -5.70683 -1490.72 -93.0345 1496.28
lowerback 9.6506 -1.08507 4.89663
upperback 4.69784 -1.19448 -0.239757
thorax -0.61688 -0.595002 -2.88037
lowerneck -5.72564 0.470863 3.56367
upperneck 4.68747 0.366114 -0.580606
head 2.48825 0.227262 -0.787634
rclavicle 1.4064e-014 -5.76476e-015
rhumerus -27.9257 2.26071 -90.0273
rradius 31.1609
rwrist 1.36352
rhand -20.9301 -8.75252
rfingers 7.12502
rthumb 5.44187 -38.6627
lclavicle 1.4064e-014 -5.76476e-015
lhumerus -20.3208 -7.03318 85.5604
lradius 29.017
lwrist 19.9763
lhand -20.0785 11.6194
lfingers 7.12502
lthumb 6.26401 41.5068
rfemur -9.22429 0.868079 27.9274
rtibia 28.619
rfoot -39.5442 -5.35214
rtoes 41.2299
lfemur -20.2498 8.79464 -20.319
ltibia 14.7008
lfoot -6.23859 -8.28078
ltoes -7.65682
1258
root 69.9778 15.9673 -5.71689 -1493.68 -93.0196 1499.04
lowerback 9.41197 -1.10687 4.93751
upperback 4.65903 -1.2275 -0.188008
thorax -0.529084 -0.608306 -2.84955
lowerneck -5.99737 0.450777 3.55952
upperneck 5.27234 0.32237 -0.562809
head 2.73453 0.211581 -0.786349
rclavicle -7.85199e-015 -3.97569e-016
rhumerus -27.8514 2.22718 -89.9848
rradius 31.0677
rwrist 1.32422
rhand -20.9635 -8.70421
rfingers 7.12502
rthumb 5.4096 -38.6152
lclavicle -7.85199e-015 -3.97569e-016
lhumerus -20.0853 -7.33029 85.6958
lradius 29.049
lwrist 20.0316
lhand -19.9489 11.6391
lfingers 7.12502
lthumb 6.3891 41.5228
rfemur -9.05685 0.742201 28.001
rtibia 28.5705
rfoot -39.2963 -5.39016
rtoes 40.8445
lfemur -20.1233 8.73177 -20.1892
ltibia 14.6518
lfoot -6.03891 -8.31677
ltoes -7.75483
1259
root 70.0077 15.9649 -5.72585 -1496.77 -93.0005 1501.95
lowerback 9.16392 -1.13487 4.97679
upperback 4.61255 -1.26913 -0.137648
thorax -0.444721 -0.625957 -2.81876
lowerneck -6.24193 0.435862 3.54581
upperneck 5.82122 0.286809 -0.541742
head 2.96615 0.199432 -0.781906
rclavicle 5.66536e-015 9.93923e-016
rhumerus -27.7842 2.1899 -89.9434
rradius 30.9624
rwrist 1.28709
rhand -20.994 -8.66093
rfingers 7.12502
rthumb 5.38014 -38.5726
lclavicle 5.66536e-015 9.93923e-016
lhumerus -19.8783 -7.60191 85.8319
lradius 29.1088
lwrist 20.0757
lhand -19.8391 11.6976
lfingers 7.12502
lthumb 6.49513 41.578
rfemur -8.89603 0.616599 28.0651
rtibia 28.5074
rfoot -39.0562 -5.44131
rtoes 40.4813
lfemur -20.019 8.64985 -20.0703
ltibia 14.6047
lfoot -5.85805 -8.327
ltoes -8.04897
1260
root 70.0363 15.9632 -5.7339 -1499.97 -92.9799 1504.99
lowerback 8.89534 -1.17005 5.01027
upperback 4.5743 -1.32273 -0.0862464
thorax -0.341244 -0.649182 -2.78325
lowerneck -6.49529 0.433284 3.52349
upperneck 6.33497 0.268067 -0.520651
head 3.19009 0.195035 -0.775111
rclavicle 7.70291e-015 -5.76476e-015
rhumerus -27.6978 2.16506 -89.9042
rradius 30.848
rwrist 1.26227
rhand -21.026 -8.63756
rfingers 7.12502
rthumb 5.34922 -38.55
lclavicle 7.70291e-015 -5.76476e-015
lhumerus -19.6783 -7.8371 85.9649
lradius 29.2067
lwrist 20.1028
lhand -19.7711 11.8308
lfingers 7.12502
lthumb 6.5608 41.7092
rfemur -8.74287 0.49418 28.1233
rtibia 28.4292
rfoot -38.8309 -5.50492
rtoes 40.1516
lfemur -19.9421 8.55924 -19.9659
ltibia 14.5669
lfoot -5.73323 -8.29551
ltoes -8.61097
